<svg width="514" height="132" viewBox="0 0 514 132" fill="none" xmlns="http://www.w3.org/2000/svg">
<rect y="1" width="514" height="131" fill="#D1E2C4"/>
<path d="M64.0625 50C66.9792 50.1667 69.375 51.2917 71.25 53.375C73.125 55.4167 74.4792 57.75 75.3125 60.375C76.1458 63 76.5625 65.6875 76.5625 68.4375C76.5625 71.1875 76.1458 73.875 75.3125 76.5C74.5208 79.125 73.1667 81.4792 71.25 83.5625C69.375 85.6042 66.9792 86.7083 64.0625 86.875H41.0625C39.9375 86.8333 38.9792 86.4375 38.1875 85.6875C37.4375 84.8958 37.0417 83.9375 37 82.8125V67.3125C37.0417 66.1458 37.4792 65.1875 38.3125 64.4375C39.1458 63.6458 40.1458 63.25 41.3125 63.25C42.4375 63.2917 43.3958 63.7083 44.1875 64.5C44.9792 65.25 45.3958 66.1875 45.4375 67.3125V76.8125C45.4375 77.9375 46.0208 78.5 47.1875 78.5H61.9375C63.5208 78.4167 64.8333 77.8125 65.875 76.6875C66.9167 75.5625 67.6667 74.2917 68.125 72.875C68.625 71.4167 68.875 69.9375 68.875 68.4375C68.875 66.9375 68.625 65.4792 68.125 64.0625C67.6667 62.6042 66.9167 61.3125 65.875 60.1875C64.8333 59.0625 63.5208 58.4583 61.9375 58.375H41.0625C38.5625 58.1667 37.2083 56.8125 37 54.3125C37 53.1458 37.375 52.1458 38.125 51.3125C38.9167 50.4792 39.8958 50.0417 41.0625 50H64.0625ZM97.4375 77.1875C97.4375 76.0208 97.8333 75.0417 98.625 74.25C99.4583 73.4167 100.458 73 101.625 73H111.188L109.562 68.375C108.896 66.6667 108.229 65.0625 107.562 63.5625C106.938 62.0208 106.208 60.625 105.375 59.375C104.625 58.125 103.771 57.4583 102.812 57.375C101.812 57.4583 100.917 58.125 100.125 59.375C99.3333 60.625 98.6042 62.0208 97.9375 63.5625C97.3125 65.0625 96.6667 66.6667 96 68.375L90.0625 84.625C89.6458 85.5 89.1042 86.2292 88.4375 86.8125C87.8125 87.3542 86.8542 87.625 85.5625 87.625C84.3542 87.625 83.3542 87.2083 82.5625 86.375C81.8125 85.5417 81.4792 84.5417 81.5625 83.375C81.6042 82.8333 81.7292 82.3333 81.9375 81.875L88.8125 64.125C90.7292 59.4583 92.6458 55.6875 94.5625 52.8125C96.4375 49.9792 99.1875 48.5417 102.812 48.5C106.396 48.5417 109.125 49.9792 111 52.8125C112.917 55.6042 114.833 59.375 116.75 64.125L123.625 81.875C123.833 82.3333 123.958 82.8333 124 83.375C124.083 84.5417 123.729 85.5417 122.938 86.375C122.188 87.2083 121.208 87.625 120 87.625C118.625 87.625 117.604 87.3542 116.938 86.8125C116.312 86.2292 115.792 85.5 115.375 84.625L114.188 81.375H101.625C100.458 81.375 99.4792 80.9583 98.6875 80.125C97.8542 79.3333 97.4375 78.3542 97.4375 77.1875ZM134.438 49C135.604 49 136.604 49.3958 137.438 50.1875C138.271 50.9375 138.708 51.8958 138.75 53.0625V54.25C138.708 55.9583 138.812 57.5417 139.062 59C139.354 60.4167 140.021 61.6875 141.062 62.8125C142.104 63.9375 143.417 64.5417 145 64.625H162.562V53.1875C162.562 52.0208 162.979 51.0625 163.812 50.3125C164.688 49.5208 165.708 49.125 166.875 49.125C169.375 49.3333 170.75 50.6875 171 53.1875V67.6875C171 71.0208 170.542 74.1667 169.625 77.125C168.792 79.75 167.417 81.9792 165.5 83.8125C163.625 85.6042 161.229 86.5833 158.312 86.75H135.812C134.688 86.7083 133.729 86.3125 132.938 85.5625C132.188 84.7708 131.792 83.8125 131.75 82.6875C131.75 81.5208 132.125 80.5208 132.875 79.6875C133.667 78.8542 134.646 78.4167 135.812 78.375H156.188C157.771 78.2917 159.083 77.6875 160.125 76.5625C161.083 75.5208 161.729 74.3333 162.062 73H142.875C139.958 72.8333 137.542 71.8542 135.625 70.0625C133.75 68.2292 132.396 66 131.562 63.375C130.771 60.75 130.354 57.9583 130.312 55V53.0625C130.354 51.9375 130.771 51 131.562 50.25C132.354 49.4583 133.312 49.0417 134.438 49ZM216.062 65.6875C215.354 64.7708 215.062 63.75 215.188 62.625C215.354 61.5 215.896 60.5625 216.812 59.8125L229.125 50.25C230.042 49.4167 231.083 49 232.25 49C233.375 49.0417 234.333 49.4583 235.125 50.25C235.917 51 236.333 51.9375 236.375 53.0625V83.6875C236.125 86.1875 234.75 87.5417 232.25 87.75C231.083 87.75 230.062 87.375 229.188 86.625C228.354 85.8333 227.938 84.8542 227.938 83.6875V61.8125L221.938 66.4375C221.021 67.1458 220 67.4167 218.875 67.25C217.708 67.125 216.771 66.6042 216.062 65.6875Z" fill="#31352E"/>
<path d="M281 1H430V132L369.68 54C369.68 54 302.983 56.3584 281 1Z" fill="#778A35"/>
<path d="M281 132H430V1L369.68 79C369.68 79 302.983 76.6416 281 132Z" fill="#778A35"/>
<path d="M263.527 86.474L263.498 86.2962C304.813 34.2161 333.577 31.7687 392.73 64.8465L392.759 65.0243C362.724 113.092 307.889 124.727 263.527 86.474Z" fill="#778A35"/>
<line x1="281.604" y1="82.7316" x2="393.129" y2="64.534" stroke="black"/>
<line x1="355.219" y1="70.5399" x2="323.418" y2="43.3057" stroke="black"/>
<line y1="-0.5" x2="41.8688" y2="-0.5" transform="matrix(-0.513372 0.858167 0.858167 0.513372 355.544 70.1602)" stroke="black"/>
<line x1="316.797" y1="76.87" x2="295.468" y2="64.1386" stroke="black"/>
<line y1="-0.5" x2="24.8395" y2="-0.5" transform="matrix(-0.651195 0.758911 0.758911 0.651195 318.04 76.2798)" stroke="black"/>
<path d="M263.527 86.474L263.498 86.2962C304.813 34.2161 333.577 31.7687 392.73 64.8465L392.759 65.0243C362.724 113.092 307.889 124.727 263.527 86.474Z" fill="#778A35"/>
<line x1="281.604" y1="82.7316" x2="393.129" y2="64.534" stroke="black"/>
<line x1="355.219" y1="70.5399" x2="323.418" y2="43.3057" stroke="black"/>
<line y1="-0.5" x2="41.8688" y2="-0.5" transform="matrix(-0.513372 0.858167 0.858167 0.513372 355.544 70.1602)" stroke="black"/>
<line x1="316.797" y1="76.87" x2="295.468" y2="64.1386" stroke="black"/>
<line y1="-0.5" x2="24.8395" y2="-0.5" transform="matrix(-0.651195 0.758911 0.758911 0.651195 318.04 76.2798)" stroke="black"/>
<path d="M267.525 50.9048L267.55 50.7263C322.488 13.2945 350.678 19.5144 397.312 68.6912L397.288 68.8698C354.314 105.826 298.5 100.623 267.525 50.9048Z" fill="#778A35"/>
<line x1="285.897" y1="52.7093" x2="397.786" y2="68.5116" stroke="black"/>
<line x1="359.806" y1="62.9682" x2="337.547" y2="27.5069" stroke="black"/>
<line y1="-0.5" x2="41.8688" y2="-0.5" transform="matrix(-0.745416 0.6666 0.6666 0.745416 360.23 62.7024)" stroke="black"/>
<line x1="321.241" y1="57.5822" x2="304.665" y2="39.0824" stroke="black"/>
<line y1="-0.5" x2="24.8395" y2="-0.5" transform="matrix(-0.847473 0.530838 0.530838 0.847473 322.603 57.3884)" stroke="black"/>
<line x1="282.198" y1="1.5407" x2="368.198" y2="38.5407" stroke="black"/>
<line x1="287.8" y1="129.542" x2="367.8" y2="94.5419" stroke="black"/>
<line x1="324.447" y1="113.224" x2="315.447" y2="131.224" stroke="black"/>
<line x1="323.884" y1="113.486" x2="302.884" y2="108.486" stroke="black"/>
<line x1="365.473" y1="95.1625" x2="354.473" y2="127.163" stroke="black"/>
<line x1="316.447" y1="0.776393" x2="326.447" y2="20.7764" stroke="black"/>
<line x1="326.117" y1="20.4862" x2="301.117" y2="26.4862" stroke="black"/>
<line x1="350.513" y1="31.1136" x2="343.513" y2="1.11362" stroke="black"/>
<line x1="351.082" y1="30.4932" x2="345.082" y2="31.4932" stroke="black"/>
<line x1="364.842" y1="95.4743" x2="358.842" y2="93.4743" stroke="black"/>
<path fill-rule="evenodd" clip-rule="evenodd" d="M514 1H397.325C386.375 12.6529 379.017 26.0923 375.074 40.2078C383.176 44.4083 388.853 54.1514 388.853 65.5C388.853 76.8832 383.142 86.6511 375 90.8305C378.997 105.661 386.506 119.808 397.325 132H514V1Z" fill="#31352E"/>
<rect x="388" y="60" width="126" height="10" fill="#778A35"/>
</svg>
