<svg width="515" height="131" viewBox="0 0 515 131" fill="none" xmlns="http://www.w3.org/2000/svg">
<rect width="514" height="131" fill="#4B5320"/>
<path fill-rule="evenodd" clip-rule="evenodd" d="M401.048 131L103 0H455.904L514.142 25.5968V131H401.048Z" fill="#88A201"/>
<path fill-rule="evenodd" clip-rule="evenodd" d="M514.437 117.985L246 0H514.437V117.985Z" fill="#242B01"/>
<path d="M73.0625 49C75.9792 49.1667 78.375 50.2917 80.25 52.375C82.125 54.4167 83.4792 56.75 84.3125 59.375C85.1458 62 85.5625 64.6875 85.5625 67.4375C85.5625 70.1875 85.1458 72.875 84.3125 75.5C83.5208 78.125 82.1667 80.4792 80.25 82.5625C78.375 84.6042 75.9792 85.7083 73.0625 85.875H50.0625C48.9375 85.8333 47.9792 85.4375 47.1875 84.6875C46.4375 83.8958 46.0417 82.9375 46 81.8125V66.3125C46.0417 65.1458 46.4792 64.1875 47.3125 63.4375C48.1458 62.6458 49.1458 62.25 50.3125 62.25C51.4375 62.2917 52.3958 62.7083 53.1875 63.5C53.9792 64.25 54.3958 65.1875 54.4375 66.3125V75.8125C54.4375 76.9375 55.0208 77.5 56.1875 77.5H70.9375C72.5208 77.4167 73.8333 76.8125 74.875 75.6875C75.9167 74.5625 76.6667 73.2917 77.125 71.875C77.625 70.4167 77.875 68.9375 77.875 67.4375C77.875 65.9375 77.625 64.4792 77.125 63.0625C76.6667 61.6042 75.9167 60.3125 74.875 59.1875C73.8333 58.0625 72.5208 57.4583 70.9375 57.375H50.0625C47.5625 57.1667 46.2083 55.8125 46 53.3125C46 52.1458 46.375 51.1458 47.125 50.3125C47.9167 49.4792 48.8958 49.0417 50.0625 49H73.0625ZM106.438 76.1875C106.438 75.0208 106.833 74.0417 107.625 73.25C108.458 72.4167 109.458 72 110.625 72H120.188L118.562 67.375C117.896 65.6667 117.229 64.0625 116.562 62.5625C115.938 61.0208 115.208 59.625 114.375 58.375C113.625 57.125 112.771 56.4583 111.812 56.375C110.812 56.4583 109.917 57.125 109.125 58.375C108.333 59.625 107.604 61.0208 106.938 62.5625C106.312 64.0625 105.667 65.6667 105 67.375L99.0625 83.625C98.6458 84.5 98.1042 85.2292 97.4375 85.8125C96.8125 86.3542 95.8542 86.625 94.5625 86.625C93.3542 86.625 92.3542 86.2083 91.5625 85.375C90.8125 84.5417 90.4792 83.5417 90.5625 82.375C90.6042 81.8333 90.7292 81.3333 90.9375 80.875L97.8125 63.125C99.7292 58.4583 101.646 54.6875 103.562 51.8125C105.438 48.9792 108.188 47.5417 111.812 47.5C115.396 47.5417 118.125 48.9792 120 51.8125C121.917 54.6042 123.833 58.375 125.75 63.125L132.625 80.875C132.833 81.3333 132.958 81.8333 133 82.375C133.083 83.5417 132.729 84.5417 131.938 85.375C131.188 86.2083 130.208 86.625 129 86.625C127.625 86.625 126.604 86.3542 125.938 85.8125C125.312 85.2292 124.792 84.5 124.375 83.625L123.188 80.375H110.625C109.458 80.375 108.479 79.9583 107.688 79.125C106.854 78.3333 106.438 77.3542 106.438 76.1875ZM143.438 48C144.604 48 145.604 48.3958 146.438 49.1875C147.271 49.9375 147.708 50.8958 147.75 52.0625V53.25C147.708 54.9583 147.812 56.5417 148.062 58C148.354 59.4167 149.021 60.6875 150.062 61.8125C151.104 62.9375 152.417 63.5417 154 63.625H171.562V52.1875C171.562 51.0208 171.979 50.0625 172.812 49.3125C173.688 48.5208 174.708 48.125 175.875 48.125C178.375 48.3333 179.75 49.6875 180 52.1875V66.6875C180 70.0208 179.542 73.1667 178.625 76.125C177.792 78.75 176.417 80.9792 174.5 82.8125C172.625 84.6042 170.229 85.5833 167.312 85.75H144.812C143.688 85.7083 142.729 85.3125 141.938 84.5625C141.188 83.7708 140.792 82.8125 140.75 81.6875C140.75 80.5208 141.125 79.5208 141.875 78.6875C142.667 77.8542 143.646 77.4167 144.812 77.375H165.188C166.771 77.2917 168.083 76.6875 169.125 75.5625C170.083 74.5208 170.729 73.3333 171.062 72H151.875C148.958 71.8333 146.542 70.8542 144.625 69.0625C142.75 67.2292 141.396 65 140.562 62.375C139.771 59.75 139.354 56.9583 139.312 54V52.0625C139.354 50.9375 139.771 50 140.562 49.25C141.354 48.4583 142.312 48.0417 143.438 48ZM225.062 64.6875C224.354 63.7708 224.062 62.75 224.188 61.625C224.354 60.5 224.896 59.5625 225.812 58.8125L238.125 49.25C239.042 48.4167 240.083 48 241.25 48C242.375 48.0417 243.333 48.4583 244.125 49.25C244.917 50 245.333 50.9375 245.375 52.0625V82.6875C245.125 85.1875 243.75 86.5417 241.25 86.75C240.083 86.75 239.062 86.375 238.188 85.625C237.354 84.8333 236.938 83.8542 236.938 82.6875V60.8125L230.938 65.4375C230.021 66.1458 229 66.4167 227.875 66.25C226.708 66.125 225.771 65.6042 225.062 64.6875Z" fill="white"/>
</svg>
